# xmcd
# Track frame offsets:
# 150
# 12667
# 30821
# 49144
# 61947
# 74772
# 89273
# 103229
# 116533
# 131638
# 144716
# 157623
#
# Disc length: 2267 seconds
# Revision: 0
# Processed by: cddbd v1.4PL0 Copyright (c) Steve Scherf et al.
# Submitted via: VisiTrax 2.9.5.180 - For more info visit www.synapsa.com
#
DISCID=a208d90c
DTITLE=Van Tassell - My little star
DYEAR=2002
DGENRE=Country
TTITLE0=Sometimes
TTITLE1=Takin' my time
TTITLE2=Unmitigated gall
TTITLE3=More than enough
TTITLE4=On the hill
TTITLE5=I had a feeling
TTITLE6=Domestic bliss
TTITLE7=Closing time
TTITLE8=The morning
TTITLE9=A fine line today
TTITLE10=Little star
TTITLE11=A love that's true
EXTD=
EXTT0=
EXTT1=
EXTT2=
EXTT3=
EXTT4=
EXTT5=
EXTT6=
EXTT7=
EXTT8=
EXTT9=
EXTT10=
EXTT11=
PLAYORDER=
